<svg width="70" height="70" viewBox="0 0 70 70" fill="none" xmlns="http://www.w3.org/2000/svg">
<circle cx="35" cy="35" r="35" fill="#1A1A2E"/>
<path d="M22.9531 28C22.875 27.8438 22.8086 27.6641 22.7539 27.4609C22.6992 27.2578 22.6523 27.043 22.6133 26.8164C22.4336 27.0117 22.2266 27.1953 21.9922 27.3672C21.7578 27.5391 21.5 27.6875 21.2188 27.8125C20.9297 27.9453 20.6133 28.0469 20.2695 28.1172C19.9258 28.1953 19.5547 28.2344 19.1562 28.2344C18.5078 28.2344 17.9102 28.1406 17.3633 27.9531C16.8242 27.7656 16.3594 27.5039 15.9688 27.168C15.5781 26.832 15.2734 26.4336 15.0547 25.9727C14.8359 25.5039 14.7266 24.9961 14.7266 24.4492C14.7266 23.7461 14.8633 23.125 15.1367 22.5859C15.4102 22.0391 15.8203 21.5898 16.3672 21.2383C16.8594 20.918 17.4648 20.6758 18.1836 20.5117C18.9102 20.3398 19.7422 20.2539 20.6797 20.2539H22.4961V19.5039C22.4961 19.207 22.4492 18.9414 22.3555 18.707C22.2617 18.4648 22.1211 18.2578 21.9336 18.0859C21.7383 17.9062 21.4922 17.7695 21.1953 17.6758C20.9062 17.5742 20.5664 17.5234 20.1758 17.5234C19.832 17.5234 19.5352 17.5664 19.2852 17.6523C19.0352 17.7305 18.832 17.8438 18.6758 17.9922C18.5352 18.125 18.4297 18.2852 18.3594 18.4727C18.2969 18.6602 18.2656 18.8672 18.2656 19.0938H15.0078C15.0078 18.5547 15.125 18.043 15.3594 17.5586C15.6016 17.0742 15.9531 16.6484 16.4141 16.2812C16.8672 15.9141 17.4219 15.625 18.0781 15.4141C18.7422 15.1953 19.5 15.0859 20.3516 15.0859C21.1172 15.0859 21.8281 15.1797 22.4844 15.3672C23.1484 15.5547 23.7227 15.832 24.207 16.1992C24.6914 16.5664 25.0703 17.0312 25.3438 17.5938C25.6172 18.1484 25.7539 18.793 25.7539 19.5273V24.9648C25.7539 25.6445 25.7969 26.207 25.8828 26.6523C25.9688 27.0977 26.0938 27.4805 26.2578 27.8008V28H22.9531ZM19.8477 25.7148C20.1758 25.7148 20.4805 25.6758 20.7617 25.5977C21.043 25.5195 21.2969 25.418 21.5234 25.293C21.75 25.168 21.9453 25.0273 22.1094 24.8711C22.2734 24.707 22.4023 24.543 22.4961 24.3789V22.1992H20.832C20.3242 22.1992 19.8906 22.25 19.5312 22.3516C19.1719 22.4453 18.8789 22.5781 18.6523 22.75C18.4258 22.9297 18.2578 23.1445 18.1484 23.3945C18.0391 23.6367 17.9844 23.9023 17.9844 24.1914C17.9844 24.418 18.0234 24.6289 18.1016 24.8242C18.1875 25.0117 18.3086 25.1719 18.4648 25.3047C18.6211 25.4297 18.8125 25.5312 19.0391 25.6094C19.2734 25.6797 19.543 25.7148 19.8477 25.7148ZM38.5508 15.0859C39.043 15.0859 39.4961 15.1211 39.9102 15.1914C40.332 15.2539 40.6719 15.3242 40.9297 15.4023L40.4492 18.6484C40.0195 18.5469 39.5781 18.4727 39.125 18.4258C38.6797 18.3711 38.2539 18.3438 37.8477 18.3438C37.4258 18.3438 37.043 18.3828 36.6992 18.4609C36.3633 18.5312 36.0625 18.6406 35.7969 18.7891C35.4766 18.9609 35.2031 19.1797 34.9766 19.4453C34.75 19.7109 34.5625 20.0234 34.4141 20.3828V28H31.1562V15.3203H34.1914L34.3203 17.1133L34.3438 17.3945C34.8594 16.6758 35.4766 16.1133 36.1953 15.707C36.9141 15.293 37.6992 15.0859 38.5508 15.0859ZM49.8359 12.2148V15.3203H54.5703V17.7227H49.8359V23.1719C49.8359 23.6328 49.8867 24.0195 49.9883 24.332C50.0977 24.6367 50.25 24.8789 50.4453 25.0586C50.6406 25.2461 50.875 25.3789 51.1484 25.457C51.4297 25.5352 51.7422 25.5742 52.0859 25.5742C52.3359 25.5742 52.5898 25.5625 52.8477 25.5391C53.1133 25.5156 53.3672 25.4844 53.6094 25.4453C53.8438 25.4141 54.0625 25.3789 54.2656 25.3398C54.4766 25.3008 54.6562 25.2617 54.8047 25.2227L55.1211 27.4609C54.8945 27.5938 54.6289 27.7109 54.3242 27.8125C54.0195 27.9062 53.6953 27.9844 53.3516 28.0469C53.0078 28.1094 52.6484 28.1562 52.2734 28.1875C51.9062 28.2266 51.543 28.2461 51.1836 28.2461C50.4883 28.2461 49.8555 28.1562 49.2852 27.9766C48.7227 27.7891 48.2422 27.5 47.8438 27.1094C47.4375 26.7266 47.125 26.2383 46.9062 25.6445C46.6875 25.043 46.5781 24.3242 46.5781 23.4883V17.7227H43.6836V15.3203H46.5781V12.2148H49.8359ZM14.7031 53.5664C14.7031 52.6055 14.8203 51.7266 15.0547 50.9297C15.2969 50.1328 15.6406 49.4492 16.0859 48.8789C16.5312 48.3086 17.0703 47.8672 17.7031 47.5547C18.3359 47.2422 19.0508 47.0859 19.8477 47.0859C20.2773 47.0859 20.668 47.1289 21.0195 47.2148C21.3789 47.293 21.7031 47.4141 21.9922 47.5781C22.2109 47.6953 22.4141 47.8359 22.6016 48C22.7891 48.1562 22.9609 48.332 23.1172 48.5273L23.2461 47.3203H26.2109V59.5898C26.2109 60.4492 26.0625 61.2148 25.7656 61.8867C25.4766 62.5586 25.0703 63.125 24.5469 63.5859C24.0156 64.0469 23.3789 64.3945 22.6367 64.6289C21.9023 64.8711 21.0898 64.9922 20.1992 64.9922C19.8164 64.9922 19.4062 64.9531 18.9688 64.875C18.5312 64.7969 18.0977 64.6758 17.668 64.5117C17.2383 64.3477 16.832 64.1367 16.4492 63.8789C16.0664 63.6289 15.7383 63.3281 15.4648 62.9766L16.9297 60.9961C17.1406 61.2383 17.3672 61.4492 17.6094 61.6289C17.8516 61.8164 18.1055 61.9688 18.3711 62.0859C18.6289 62.2031 18.8945 62.2891 19.168 62.3438C19.4492 62.4062 19.7383 62.4375 20.0352 62.4375C20.5117 62.4375 20.9336 62.3711 21.3008 62.2383C21.6758 62.1055 21.9883 61.9102 22.2383 61.6523C22.4648 61.418 22.6367 61.1289 22.7539 60.7852C22.8789 60.4414 22.9414 60.0547 22.9414 59.625V58.8984C22.7852 59.0703 22.6211 59.2266 22.4492 59.3672C22.2773 59.5078 22.0938 59.6328 21.8984 59.7422C21.6094 59.8984 21.2891 60.0195 20.9375 60.1055C20.5938 60.1914 20.2227 60.2344 19.8242 60.2344C19.0352 60.2344 18.3242 60.0742 17.6914 59.7539C17.0664 59.4258 16.5312 58.9766 16.0859 58.4062C15.6406 57.8359 15.2969 57.1602 15.0547 56.3789C14.8203 55.5898 14.7031 54.7344 14.7031 53.8125V53.5664ZM17.9727 53.8125C17.9727 54.3438 18.0234 54.8398 18.125 55.3008C18.2344 55.7539 18.3984 56.1484 18.6172 56.4844C18.8359 56.8281 19.1133 57.0977 19.4492 57.293C19.7852 57.4883 20.1836 57.5859 20.6445 57.5859C20.9258 57.5859 21.1797 57.5586 21.4062 57.5039C21.6406 57.4492 21.8516 57.3711 22.0391 57.2695C22.2344 57.1602 22.4062 57.0273 22.5547 56.8711C22.7031 56.7148 22.832 56.5391 22.9414 56.3438V50.9766C22.8242 50.7578 22.6836 50.5664 22.5195 50.4023C22.3555 50.2383 22.168 50.1055 21.957 50.0039C21.7773 49.918 21.5781 49.8516 21.3594 49.8047C21.1484 49.7578 20.918 49.7344 20.668 49.7344C20.207 49.7344 19.8086 49.8359 19.4727 50.0391C19.1367 50.2344 18.8594 50.5039 18.6406 50.8477C18.4141 51.1992 18.2461 51.6094 18.1367 52.0781C18.0273 52.5391 17.9727 53.0352 17.9727 53.5664V53.8125ZM35.5977 60.2344C34.6211 60.2344 33.7344 60.0742 32.9375 59.7539C32.1406 59.4336 31.457 58.9961 30.8867 58.4414C30.3164 57.8945 29.875 57.25 29.5625 56.5078C29.2578 55.7578 29.1055 54.957 29.1055 54.1055V53.6367C29.1055 52.668 29.2578 51.7852 29.5625 50.9883C29.8672 50.1836 30.293 49.4922 30.8398 48.9141C31.3867 48.3359 32.0352 47.8867 32.7852 47.5664C33.5352 47.2461 34.3516 47.0859 35.2344 47.0859C36.1484 47.0859 36.9609 47.2383 37.6719 47.543C38.3906 47.8398 39 48.2617 39.5 48.8086C39.9922 49.3555 40.3672 50.0156 40.625 50.7891C40.8828 51.5547 41.0117 52.4023 41.0117 53.332V54.7148H32.4102V54.75C32.5195 55.2578 32.6602 55.668 32.832 55.9805C33.0039 56.2852 33.2344 56.5625 33.5234 56.8125C33.8203 57.0703 34.1602 57.2695 34.543 57.4102C34.9258 57.5508 35.3438 57.6211 35.7969 57.6211C36.4375 57.6211 37.0586 57.5 37.6602 57.2578C38.2617 57.0156 38.75 56.6523 39.125 56.168L40.7539 57.9258C40.3398 58.5117 39.6836 59.043 38.7852 59.5195C37.8867 59.9961 36.8242 60.2344 35.5977 60.2344ZM35.2109 49.7227C34.8438 49.7227 34.5078 49.7891 34.2031 49.9219C33.8984 50.0469 33.6328 50.2305 33.4062 50.4727C33.1719 50.7148 32.9766 51.0039 32.8203 51.3398C32.6641 51.6758 32.5469 52.0508 32.4688 52.4648H37.8125V52.207C37.8125 51.8633 37.75 51.5391 37.625 51.2344C37.5 50.9297 37.3281 50.6641 37.1094 50.4375C36.8906 50.2188 36.6211 50.0469 36.3008 49.9219C35.9883 49.7891 35.625 49.7227 35.2109 49.7227ZM43.8594 60V47.3203H46.8125L47.0117 49.0781C47.1758 48.8438 47.3555 48.6289 47.5508 48.4336C47.7461 48.2383 47.9531 48.0625 48.1719 47.9062C48.5469 47.6406 48.957 47.4375 49.4023 47.2969C49.8477 47.1562 50.3203 47.0859 50.8203 47.0859C51.4609 47.0859 52.0469 47.1797 52.5781 47.3672C53.1094 47.5547 53.5703 47.8516 53.9609 48.2578C54.3438 48.6719 54.6406 49.2031 54.8516 49.8516C55.0703 50.4922 55.1797 51.2734 55.1797 52.1953V60H51.9219V52.2422C51.9219 51.7422 51.8633 51.332 51.7461 51.0117C51.6367 50.6836 51.4766 50.4258 51.2656 50.2383C51.0547 50.0508 50.8008 49.9219 50.5039 49.8516C50.207 49.7734 49.8711 49.7344 49.4961 49.7344C49.1836 49.7344 48.8945 49.7695 48.6289 49.8398C48.3711 49.9102 48.1406 50.0156 47.9375 50.1562C47.7734 50.2578 47.625 50.3789 47.4922 50.5195C47.3594 50.6602 47.2383 50.8164 47.1289 50.9883V60H43.8594Z" fill="#E4C1F9"/>
</svg>
